<?xml version="1.0" encoding="utf-8"?>
<!-- Generator: Adobe Illustrator 19.2.1, SVG Export Plug-In . SVG Version: 6.00 Build 0)  -->
<svg version="1.1" id="Calque_1" xmlns="http://www.w3.org/2000/svg" xmlns:xlink="http://www.w3.org/1999/xlink" x="0px" y="0px"
	 viewBox="0 0 2945 2945" style="enable-background:new 0 0 2945 2945;" xml:space="preserve">
<style type="text/css">
	.st0{fill:#7FC2C9;}
	.st1{fill:#47848F;}
	.st2{fill:#B2E7EA;}
</style>
<rect class="st0" width="2945" height="2945"/>
<rect x="341.3" y="341.3" class="st1" width="2262.5" height="2262.5"/>
<g>
	<g transform="translate(4.000000, 0.000000)">
		<path class="st2" d="M1212.3,933.5c-247-45-442.4,2.1-520.4,137.2c-58.2,100.8-41.6,234.3,40.2,376.9c7.2,12.5,23.1,16.9,35.7,9.7
			s16.9-23.1,9.7-35.7c-73.4-128-87.7-242.7-40.3-324.8c64.4-111.5,238-153.3,465.8-111.9c14.2,2.6,27.8-6.8,30.4-21
			C1235.9,949.7,1226.5,936.1,1212.3,933.5L1212.3,933.5z M860.5,1620.8c99.8,109.7,229.5,212.6,377.4,297.9
			c358.1,206.8,739.4,262,927.5,133.8c11.9-8.1,15-24.4,6.9-36.3c-8.1-11.9-24.4-15-36.3-6.9c-167.7,114.4-529.3,61.9-871.9-135.9
			c-143.3-82.7-268.7-182.3-364.8-287.9c-9.7-10.7-26.2-11.5-36.9-1.7S850.8,1610.2,860.5,1620.8L860.5,1620.8z M2340.1,1964.5
			c0-67.3-54.6-121.9-121.9-121.9c-67.3,0-121.9,54.6-121.9,121.9c0,67.3,54.6,121.9,121.9,121.9
			C2285.6,2086.4,2340.1,2031.8,2340.1,1964.5L2340.1,1964.5z M2287.9,1964.5c0,38.5-31.2,69.6-69.6,69.6
			c-38.5,0-69.6-31.2-69.6-69.6s31.2-69.6,69.6-69.6C2256.7,1894.8,2287.9,1926,2287.9,1964.5L2287.9,1964.5z"/>
		<path class="st2" d="M2105.7,1590c161.7-191.1,218.2-383.3,140.4-518.1c-57.3-99.2-178.2-151.5-338.9-153.6
			c-14.4-0.2-26.3,11.4-26.5,25.8c-0.2,14.4,11.4,26.3,25.8,26.5c144,1.9,247.7,46.7,294.3,127.5c64.2,111.2,14,282.1-135.1,458.2
			c-9.3,11-8,27.5,3.1,36.8C2079.8,1602.4,2096.3,1601.1,2105.7,1590L2105.7,1590z M1689.7,941.9
			c-146.1,31.3-301.7,92.5-451.1,178.8c-369.7,213.4-610.9,528.2-577.4,756.7c2.1,14.3,15.4,24.2,29.7,22.1
			c14.3-2.1,24.2-15.4,22.1-29.7c-29.7-202.1,198.6-499.9,551.8-703.8c144.8-83.6,295.2-142.8,435.9-172.9c14.1-3,23.1-16.9,20.1-31
			C1717.7,947.9,1703.8,938.9,1689.7,941.9L1689.7,941.9z"/>
		<path class="st2" d="M1090.6,2035.7c84.6,236.1,223,381.6,378.8,381.6c113.7,0,218.7-77.4,300.6-213.6c7.4-12.4,3.4-28.4-8.9-35.9
			c-12.4-7.4-28.4-3.4-35.9,8.9c-73.3,122-163.3,188.3-255.8,188.3c-128.6,0-251.6-129.3-329.6-347c-4.9-13.6-19.8-20.7-33.4-15.8
			C1092.8,2007.1,1085.7,2022.1,1090.6,2035.7L1090.6,2035.7z M1863.6,1989.5c43.7-139.8,67.2-301.1,67.2-469.1
			c0-419.4-146.8-781-356.1-873.9c-13.2-5.9-28.6,0.1-34.5,13.3s0.1,28.6,13.3,34.5c186,82.6,325.1,425.2,325.1,826.2
			c0,162.9-22.7,318.9-64.9,453.5c-4.3,13.8,3.4,28.4,17.1,32.7C1844.7,2011,1859.3,2003.3,1863.6,1989.5L1863.6,1989.5z"/>
		<path class="st2" d="M2340.1,1964.5c0-67.3-54.6-121.9-121.9-121.9c-67.3,0-121.9,54.6-121.9,121.9c0,67.3,54.6,121.9,121.9,121.9
			C2285.6,2086.4,2340.1,2031.8,2340.1,1964.5L2340.1,1964.5z M2287.9,1964.5c0,38.5-31.2,69.6-69.6,69.6
			c-38.5,0-69.6-31.2-69.6-69.6s31.2-69.6,69.6-69.6C2256.7,1894.8,2287.9,1926,2287.9,1964.5L2287.9,1964.5z"/>
		<path class="st2" d="M718.8,2086.4c67.3,0,121.9-54.6,121.9-121.9c0-67.3-54.6-121.9-121.9-121.9s-121.9,54.6-121.9,121.9
			C596.9,2031.8,651.4,2086.4,718.8,2086.4L718.8,2086.4z M718.8,2034.1c-38.5,0-69.6-31.2-69.6-69.6s31.2-69.6,69.6-69.6
			c38.5,0,69.6,31.2,69.6,69.6S757.2,2034.1,718.8,2034.1L718.8,2034.1z"/>
		<path class="st2" d="M1469.4,771.6c67.3,0,121.9-54.6,121.9-121.9s-54.6-121.9-121.9-121.9c-67.3,0-121.9,54.6-121.9,121.9
			S1402,771.6,1469.4,771.6L1469.4,771.6z M1469.4,719.3c-38.5,0-69.6-31.2-69.6-69.6c0-38.5,31.2-69.6,69.6-69.6
			s69.6,31.2,69.6,69.6C1539,688.1,1507.8,719.3,1469.4,719.3L1469.4,719.3z"/>
		<path class="st2" d="M1487.9,1606c-47.3,10.2-93.9-19.8-104.1-67.1c-10.2-47.3,19.8-93.9,67.1-104.1
			c47.3-10.2,93.9,19.8,104.1,67.1C1565.2,1549.2,1535.2,1595.8,1487.9,1606z"/>
	</g>
</g>
</svg>
