<svg id="Layer_1" data-name="Layer 1" xmlns="http://www.w3.org/2000/svg" viewBox="0 0 48 48"><defs><style>.cls-1{fill:none;stroke:#55565a;stroke-miterlimit:10;stroke-width:2px;}</style></defs><title>GG_HomePage_Icons</title><path class="cls-1" d="M34,25h2a6,6,0,0,1,0,12H34"/><path class="cls-1" d="M34,43a4,4,0,0,1-4,4H12a4,4,0,0,1-4-4V21H34V43Z"/><path class="cls-1" d="M33.76,1.13c2.06,3.15-1,4.87-1.71,6.56a3.09,3.09,0,0,0,1.77,4.26C39.63,14.39,41.35,3,33.76,1.13Z"/><line class="cls-1" x1="28" y1="21" x2="33.22" y2="11.63"/><line class="cls-1" x1="35.28" y1="12.31" x2="32" y2="21"/><polygon class="cls-1" points="16 21 10 21 7 15 6 9 11 12 16 21"/><line class="cls-1" x1="7" y1="15" x2="11" y2="12"/><rect class="cls-1" x="18" y="1" width="8" height="20"/><line class="cls-1" x1="26" y1="5" x2="22" y2="5"/><line class="cls-1" x1="26" y1="9" x2="24" y2="9"/><line class="cls-1" x1="26" y1="13" x2="22" y2="13"/><line class="cls-1" x1="26" y1="17" x2="24" y2="17"/></svg>